<svg width="25" height="24" viewBox="0 0 25 24" fill="none" xmlns="http://www.w3.org/2000/svg">
<path fill-rule="evenodd" clip-rule="evenodd" d="M4.57068 1.03125C3.73385 0.194409 2.37706 0.19441 1.54023 1.03125C0.703388 1.86808 0.703388 3.22487 1.54023 4.0617L9.62147 12.1429L1.54029 20.2241C0.70345 21.061 0.70345 22.4177 1.54029 23.2546C2.37713 24.0914 3.73391 24.0914 4.57075 23.2546L12.6519 15.1734L20.7331 23.2546C21.57 24.0914 22.9267 24.0914 23.7636 23.2546C24.6004 22.4178 24.6004 21.061 23.7636 20.2241L15.6824 12.1429L23.7636 4.06168C24.6005 3.22484 24.6005 1.86806 23.7636 1.03122C22.9268 0.194387 21.57 0.194388 20.7332 1.03123L12.6519 9.11249L4.57068 1.03125Z" fill="#FFCB57"/>
</svg>
